<svg width="842" height="595" viewBox="0 0 842 595" fill="none" xmlns="http://www.w3.org/2000/svg">
<rect width="595" height="842" transform="translate(842) rotate(90)" fill="white"/>
<path d="M345.757 187.819L318.398 229.354L353.22 298.271L370.015 243.045L345.757 187.819Z" fill="#508DF7"/>
<path d="M318.184 187.817C313.837 187.817 309.764 189.386 306.572 192.063C303.897 194.309 301.83 197.324 300.751 200.862L250 367.803L277.572 367.803C285.582 367.803 292.649 362.511 295.005 354.773L328.976 243.044L345.756 187.817L318.184 187.817Z" fill="#242F4E"/>
<path d="M427.831 187.819L400.473 229.354L436.693 301.456C438.076 304.609 440.28 307.224 442.955 309.117L462.015 265.705L427.831 187.819Z" fill="#03A9F4"/>
<path d="M427.831 187.819L400.473 229.354L436.693 301.456C438.076 304.609 440.28 307.224 442.955 309.117L462.015 265.705L427.831 187.819Z" fill="#508DF7"/>
<path d="M400.259 187.817C395.912 187.817 391.839 189.386 388.647 192.063C385.972 194.309 383.905 197.324 382.826 200.862L370.013 243.044L353.217 298.27L332.075 367.803L359.647 367.803C367.657 367.803 374.725 362.511 377.08 354.773L389.954 312.423L394.256 298.27L411.051 243.044L427.831 187.817L400.259 187.817Z" fill="#242F4E"/>
<path d="M496.231 187.819L462.032 265.689L442.972 309.101C445.966 311.209 449.569 312.409 453.369 312.409L470.696 312.409C474.496 312.409 478.098 311.209 481.092 309.101C483.782 307.209 485.971 304.594 487.354 301.44L523.589 229.354L496.231 187.819Z" fill="#FFCB29"/>
<path d="M541.234 200.848C540.155 197.31 538.088 194.295 535.413 192.049C532.221 189.388 528.148 187.803 523.801 187.803L496.229 187.803L513.024 243.029L546.995 354.759C549.351 362.512 556.418 367.789 564.428 367.789L592 367.789L541.234 200.848Z" fill="#242F4E"/>
<path d="M327.517 247.798L345.756 187.803L333.596 259.336L327.517 247.798Z" fill="#4372DA"/>
<path d="M409.593 247.798L427.832 187.803L415.673 259.336L409.593 247.798Z" fill="#4372DA"/>
<path d="M514.467 247.798L496.228 187.803L508.388 259.336L514.467 247.798Z" fill="#FFA41F"/>
<path d="M250 406.999L253.072 381.927L264.4 399.016L275.714 381.927L278.786 406.999H274.257L272.734 394.602L264.4 406.52L256.052 394.602L254.529 406.999H250Z" fill="#242F4E"/>
<path d="M301.279 384.097C303.133 385.41 304.508 387.185 305.397 389.425C306.037 391.025 306.357 392.701 306.357 394.456C306.357 396.212 306.037 397.892 305.397 399.502C304.503 401.742 303.128 403.516 301.279 404.83C299.236 406.274 296.798 406.999 293.965 406.999C291.141 406.999 288.703 406.274 286.651 404.83C284.796 403.516 283.422 401.742 282.532 399.502C281.892 397.892 281.572 396.207 281.572 394.456C281.572 392.705 281.892 391.025 282.532 389.425C283.427 387.185 284.801 385.41 286.651 384.097C288.703 382.652 291.141 381.927 293.965 381.927C296.803 381.932 299.241 382.652 301.279 384.097ZM298.469 388.022C297.212 387.161 295.711 386.733 293.969 386.733C292.228 386.733 290.731 387.161 289.484 388.022C288.35 388.804 287.517 389.872 286.985 391.218C286.575 392.221 286.373 393.303 286.373 394.461C286.373 395.619 286.575 396.706 286.985 397.723C287.512 399.059 288.345 400.118 289.484 400.9C290.731 401.77 292.223 402.208 293.969 402.208C295.716 402.208 297.212 401.77 298.469 400.9C299.594 400.118 300.427 399.059 300.968 397.723C301.364 396.706 301.566 395.623 301.566 394.461C301.566 393.298 301.368 392.221 300.968 391.218C300.427 389.867 299.594 388.804 298.469 388.022Z" fill="#242F4E"/>
<path d="M313.602 381.927V391.262H323.256V381.927L327.715 381.927L327.715 406.999L323.256 406.999L323.256 396.278H313.602L313.602 406.999H309.143L309.143 381.927H313.602Z" fill="#242F4E"/>
<path d="M330.501 406.999L341.644 381.927L352.787 406.999H347.872L346.123 403.052H337.166L335.416 406.999H330.501ZM344.496 399.387L343.116 396.288C342.808 395.59 342.314 394.369 341.644 392.624C341.477 393.001 341.243 393.595 340.93 394.416C340.621 395.223 340.379 395.831 340.203 396.241L338.792 399.392H344.496V399.387Z" fill="#242F4E"/>
<path d="M355.573 406.999L358.645 381.927L369.973 399.016L381.287 381.927L384.359 406.999H379.826L378.303 394.602L369.968 406.52L361.621 394.602L360.098 406.999H355.573Z" fill="#242F4E"/>
<path d="M402.931 386.944H391.987V391.35H401.909V396.367H391.987L391.987 402.003H402.931V406.999H387.145L387.145 381.927H402.931V386.944Z" fill="#242F4E"/>
<path d="M412.794 381.927C416.22 381.927 419.144 383.147 421.567 385.591C423.999 388.045 425.217 391.001 425.217 394.463C425.217 397.926 423.999 400.871 421.567 403.316C419.144 405.77 416.22 406.999 412.794 406.999H405.717L405.717 381.927H412.794ZM410.683 386.944L410.683 401.988H412.789C414.846 401.988 416.6 401.25 418.048 399.775C419.51 398.309 420.241 396.544 420.241 394.468C420.241 392.393 419.51 390.617 418.048 389.142C416.595 387.676 414.846 386.949 412.789 386.949H410.683V386.944Z" fill="#242F4E"/>
<path d="M439.08 407L442.813 381.928L453.475 400.336L464.138 381.928L467.866 407H465.282L462.698 389.611L453.475 405.535L444.253 389.611L441.669 407H439.08Z" fill="#242F4E"/>
<path d="M470.652 407L482.752 381.928L494.851 407H491.846L488.696 400.497L476.812 400.497L473.676 407H470.652ZM487.391 397.774L482.752 388.182L478.113 397.774L487.391 397.774Z" fill="#242F4E"/>
<path d="M499.223 381.928L518.789 381.928L503.128 404.212L518.943 404.212V407L497.637 407L513.277 384.716H499.213V381.928H499.223Z" fill="#242F4E"/>
<path d="M541.428 384.103C543.269 385.407 544.635 387.171 545.521 389.395C546.173 391 546.499 392.692 546.499 394.466C546.499 396.239 546.173 397.931 545.521 399.537C544.635 401.77 543.269 403.544 541.428 404.842C539.382 406.28 536.947 406.999 534.114 406.999C531.281 406.999 528.847 406.28 526.8 404.842C524.959 403.539 523.589 401.77 522.688 399.537C522.045 397.931 521.729 396.239 521.729 394.466C521.729 392.692 522.05 391 522.688 389.395C523.589 387.171 524.955 385.407 526.8 384.103C528.847 382.656 531.281 381.927 534.114 381.927C536.947 381.927 539.382 382.651 541.428 384.103ZM539.794 386.375C538.212 385.263 536.319 384.707 534.114 384.707C531.909 384.707 530.021 385.263 528.434 386.375C527.006 387.362 525.952 388.714 525.266 390.42C524.763 391.691 524.509 393.037 524.509 394.466C524.509 395.894 524.763 397.241 525.266 398.511C525.952 400.217 527.006 401.574 528.434 402.571C530.016 403.673 531.909 404.224 534.114 404.224C536.319 404.224 538.207 403.673 539.794 402.571C541.222 401.569 542.276 400.217 542.962 398.511C543.465 397.241 543.719 395.894 543.719 394.466C543.719 393.037 543.465 391.691 542.962 390.42C542.276 388.714 541.222 387.362 539.794 386.375Z" fill="#242F4E"/>
<path d="M568.786 381.927V397.14C568.786 399.867 567.829 402.195 565.915 404.116C564.016 406.036 561.719 406.999 559.033 406.999C556.337 406.999 554.035 406.036 552.136 404.116C550.237 402.195 549.285 399.867 549.285 397.14V381.927H552.102V397.14C552.102 399.076 552.777 400.726 554.132 402.097C555.487 403.467 557.119 404.15 559.033 404.15C560.947 404.15 562.579 403.467 563.934 402.097C565.289 400.726 565.964 399.076 565.964 397.14V381.927H568.786Z" fill="#242F4E"/>
<path d="M573.083 381.927L591.847 381.927L576.833 404.211L592 404.211V406.999L571.571 406.999L586.571 384.715H573.083V381.927Z" fill="#242F4E"/>
</svg>
